<?xml version="1.0" standalone="no"?>
<!DOCTYPE svg PUBLIC "-//W3C//DTD SVG 20010904//EN"
 "http://www.w3.org/TR/2001/REC-SVG-20010904/DTD/svg10.dtd">
<svg version="1.0" xmlns="http://www.w3.org/2000/svg"
 width="596.000000pt" height="419.000000pt" viewBox="0 0 596.000000 419.000000"
 preserveAspectRatio="xMidYMid meet">
<metadata>
Created by potrace 1.16, written by Peter Selinger 2001-2019
</metadata>
<g transform="translate(0.000000,419.000000) scale(0.100000,-0.100000)"
fill="#000000" stroke="none">
<path d="M2326 4084 l-96 -97 -22 19 c-12 10 -39 37 -59 59 l-38 39 -960 -959
-961 -960 0 -495 0 -495 -24 -47 c-38 -74 -52 -174 -38 -264 8 -51 9 -81 2
-94 -18 -33 -58 -154 -79 -235 -28 -106 -41 -239 -41 -413 l0 -144 28 6 c15 3
106 8 203 12 l177 7 7 81 c4 53 1 130 -10 221 -20 173 -40 261 -80 360 -32 77
-36 102 -24 149 6 26 10 90 7 148 -3 87 -8 112 -31 159 l-27 56 0 446 c0 246
3 447 7 447 5 0 421 -413 925 -917 l917 -917 56 55 c30 30 60 54 65 54 5 0 52
-42 104 -93 l93 -93 311 310 311 311 1075 0 c724 0 1076 3 1076 10 0 6 -22 56
-49 113 -27 56 -61 129 -76 162 -15 33 -40 86 -56 119 -16 32 -29 62 -29 66 0
5 58 38 128 73 272 136 482 300 618 483 46 62 46 62 125 79 43 9 81 21 85 26
3 5 -51 9 -130 9 l-136 0 0 35 0 35 -90 0 -90 0 0 -35 0 -35 -85 0 -85 0 0 35
0 35 -73 0 -73 0 -19 -72 c-10 -40 -22 -81 -27 -91 -9 -17 -4 -18 79 -12 125
9 398 33 461 41 60 8 65 -2 19 -33 -17 -12 -81 -56 -142 -97 -60 -42 -112 -76
-117 -76 -4 0 -24 -12 -45 -26 -49 -33 -273 -145 -338 -169 -27 -10 -54 -21
-60 -25 -5 -4 -32 -15 -58 -24 -47 -18 -49 -18 -62 0 -8 11 -15 22 -16 27 -1
4 -2 10 -3 15 -1 4 -7 16 -14 27 -12 19 -13 18 -6 -5 3 -14 13 -38 21 -53 8
-16 13 -30 11 -31 -19 -14 -76 -26 -130 -28 -38 -2 -68 -6 -68 -11 0 -5 24 -8
53 -7 28 1 58 1 64 1 10 -1 123 -208 123 -223 0 -2 -36 -4 -80 -5 l-79 -2 -31
82 c-43 112 -54 118 -19 11 16 -49 29 -90 29 -91 0 -1 -51 -4 -112 -6 l-113
-3 116 -2 c116 -2 116 -2 128 -29 14 -30 61 -168 61 -177 0 -3 -58 -6 -129 -6
-115 0 -130 2 -135 18 -2 9 -11 43 -18 75 -7 31 -16 57 -20 57 -12 0 -10 -23
7 -70 8 -23 15 -53 15 -67 l0 -24 -137 1 c-76 1 -426 -1 -778 -5 l-640 -7
-268 -266 c-147 -147 -273 -269 -279 -271 -11 -4 -1838 1817 -1838 1832 0 9
1829 1837 1839 1837 3 0 213 -207 466 -460 506 -506 462 -471 568 -453 l39 6
-533 533 c-294 294 -537 534 -540 534 -4 0 -50 -43 -103 -96z m2642 -3061 c29
-53 51 -98 49 -99 -1 -1 -43 -4 -93 -6 l-92 -5 -36 97 c-20 53 -36 100 -36
103 0 4 35 7 79 7 l78 0 51 -97z"/>
<path d="M3430 3014 c-164 -20 -217 -27 -302 -44 -181 -36 -422 -103 -558
-154 -101 -39 -296 -121 -305 -128 -5 -4 46 -8 113 -8 95 0 136 4 181 20 98
33 320 87 446 110 526 93 1116 66 1645 -76 170 -46 180 -47 345 -51 97 -2 166
0 160 5 -13 11 -253 112 -266 112 -6 0 -25 6 -42 14 -55 25 -288 93 -407 119
-318 70 -378 77 -700 82 -151 2 -291 1 -310 -1z"/>
<path d="M2045 2581 c-6 -5 -32 -21 -60 -36 -113 -62 -256 -163 -350 -246 -34
-31 -51 -38 -115 -47 -83 -13 -154 -31 -147 -38 2 -3 72 -5 156 -5 l151 0 0
-35 0 -34 84 0 85 0 3 33 3 32 88 3 87 3 0 -36 0 -35 85 0 85 0 0 28 c0 15 -8
53 -17 86 l-18 58 -120 -6 c-66 -4 -176 -14 -244 -21 -69 -8 -126 -13 -128
-11 -10 10 215 144 360 215 59 28 68 36 63 55 -3 11 -6 27 -6 34 0 14 -31 16
-45 3z"/>
<path d="M5346 2577 c-3 -6 -9 -26 -14 -43 l-10 -31 82 -43 c138 -73 261 -147
298 -180 16 -15 6 -15 -105 -3 -67 7 -168 17 -224 21 l-103 7 -14 -45 c-8 -25
-19 -62 -25 -82 l-9 -38 53 0 c53 0 54 0 57 33 l3 32 83 3 82 3 0 -36 0 -35
90 0 90 0 0 34 0 35 131 0 c72 0 133 2 136 5 7 6 -101 36 -133 36 -20 0 -44
17 -96 70 -113 115 -363 288 -372 257z"/>
<path d="M2343 2448 c3 -13 19 -72 37 -133 18 -60 41 -141 51 -180 10 -38 26
-95 35 -125 55 -183 55 -190 -6 -190 l-40 0 0 -65 c0 -62 1 -66 28 -76 34 -14
149 -6 187 12 41 20 68 65 99 166 15 48 31 99 36 113 4 14 14 48 20 75 7 28
24 88 37 135 14 47 37 131 52 188 l28 102 -99 0 c-54 0 -98 -1 -98 -3 0 -1
-16 -79 -36 -172 -20 -94 -40 -198 -44 -233 -9 -76 -20 -93 -20 -31 0 25 -12
108 -26 185 -15 76 -31 165 -37 197 l-11 57 -99 0 c-98 0 -99 0 -94 -22z"/>
<path d="M3570 2075 l0 -395 95 0 95 0 0 318 0 317 112 0 113 0 3 78 3 77
-211 0 -210 0 0 -395z"/>
<path d="M4022 2393 l3 -78 73 -3 72 -3 0 -314 0 -315 90 0 90 0 0 315 0 315
54 0 c85 0 86 1 86 86 l0 74 -235 0 -236 0 3 -77z"/>
<path d="M4530 2458 c0 -12 72 -261 140 -488 13 -41 24 -91 24 -110 1 -34 0
-35 -41 -38 l-43 -3 0 -65 c0 -61 1 -65 28 -75 15 -6 58 -9 99 -6 117 9 148
42 199 214 24 81 40 140 123 443 16 58 32 113 36 123 7 15 -2 17 -93 17 l-99
0 -12 -52 c-6 -29 -18 -82 -26 -118 -36 -157 -45 -208 -45 -247 0 -24 -4 -43
-10 -43 -5 0 -10 19 -10 43 0 23 -16 126 -37 230 l-37 187 -98 0 c-68 0 -98
-4 -98 -12z"/>
<path d="M3019 2098 c0 -95 -4 -197 -8 -227 -8 -55 -30 -84 -57 -74 -11 4 -14
-7 -14 -55 0 -68 4 -72 76 -72 71 0 108 21 134 76 21 43 24 66 28 215 l5 167
48 4 49 3 0 -227 0 -228 85 0 85 0 0 295 0 295 -215 0 -215 0 -1 -172z"/>
<path d="M1680 1975 l0 -35 -150 0 c-82 0 -150 -4 -150 -8 0 -10 133 -42 170
-42 20 0 35 -13 65 -52 52 -71 206 -224 280 -278 128 -94 220 -151 349 -217
l135 -68 85 45 c46 25 85 50 86 55 2 6 -19 17 -46 26 -27 8 -58 19 -69 24 -11
4 -47 19 -80 33 -131 53 -240 106 -385 187 -58 33 -107 61 -110 65 -3 3 -25
18 -50 34 -61 39 -180 128 -180 134 0 2 14 2 31 -2 32 -6 286 -29 457 -42 l92
-6 0 38 c0 22 -3 63 -6 92 l-7 52 -83 0 -84 0 0 -35 0 -35 -90 0 -90 0 0 35 0
35 -85 0 -85 0 0 -35z"/>
</g>
</svg>
